<svg xmlns="http://www.w3.org/2000/svg" width="600" height="600" viewBox="0 0 600 600"><path fill="#C6C6C6" d="M560.913 464.946l-3.047-6.577c-9.178-21.59-121.65-54.622-130.94-55.18l-7.507.595c-15.346 3.12-32.18 17.65-67.702 49.047-39.98-18.43-94.675-67.774-120.462-96.83-27.905-31.455-62.72-84.384-75.243-123.92 40.426-35.838 57.296-51.407 58.374-68.723.557-9.31-18.728-124.867-39.053-136.572l-6.13-3.846C156.31 14.6 136.727 1.986 115.028 6.426c-5.277 1.096-10.405 3.158-15.16 6.13-14.64 9.178-50.312 33.962-66.586 66.326C23.25 99.06 18.717 283.082 156.57 438.564c136.292 153.792 304.316 160.48 329.583 155.316l.67-.15 2.23-.63c34.073-12.225 62.98-44.7 73.868-58.113 19.99-24.784 5.723-54.213-2.007-70.04z"/></svg>