<?xml version="1.0" encoding="utf-8"?>
<!-- Generator: Adobe Illustrator 15.1.0, SVG Export Plug-In  -->
<!DOCTYPE svg PUBLIC "-//W3C//DTD SVG 1.1//EN" "http://www.w3.org/Graphics/SVG/1.1/DTD/svg11.dtd" [
	<!ENTITY ns_flows "http://ns.adobe.com/Flows/1.0/">
]>
<svg version="1.1"
	 xmlns="http://www.w3.org/2000/svg" xmlns:xlink="http://www.w3.org/1999/xlink" xmlns:a="http://ns.adobe.com/AdobeSVGViewerExtensions/3.0/"
	 x="0px" y="0px" width="200px" height="200px" viewBox="-1.686 -1 200 200"
	 overflow="visible" enable-background="new -1.686 -1 200 200" xml:space="preserve">
<defs>
</defs>
<path fill-rule="evenodd" clip-rule="evenodd" fill="#F37021" d="M0,98.598C0,44.14,44.17,0,98.656,0
	c54.486,0,98.658,44.14,98.658,98.598c0,54.458-44.172,98.601-98.658,98.601C44.17,197.199,0,153.057,0,98.598z M96.653,132.324
	c-9.699,0.008-17.31-0.664-22.789-2.053c-6.028-1.523-10.183-4.857-12.463-9.998c-2.282-5.139-3.364-13.053-3.251-23.734
	c0.05-5.757,0.398-11.334,1.044-16.732c0.647-5.4,1.293-9.859,1.939-13.378l0.678-3.496c0.016-0.104,0.024-0.21,0.024-0.316
	c0-0.989-0.719-1.81-1.663-1.971l-12.75-1.972c-0.103-0.019-0.209-0.025-0.317-0.025c-0.949,0-1.744,0.655-1.952,1.539
	c-0.211,0.816-0.344,1.422-0.726,3.361c-0.735,3.736-1.402,7.376-2.147,12.634c-0.742,5.255-1.222,11.068-1.438,17.427
	c0,0-0.308,1.417,0,12.199c0.309,10.779,2.164,19.389,5.57,25.828c3.401,6.441,9.172,11.078,17.312,13.906
	c8.14,2.826,19.47,4.211,33.99,4.15H99.6c14.521,0.061,25.848-1.324,33.99-4.15c8.141-2.828,13.91-7.465,17.312-13.906
	c3.406-6.439,5.258-15.049,5.566-25.828c0.309-10.782,0-12.199,0-12.199c-0.215-6.359-0.693-12.172-1.438-17.427
	c-0.744-5.258-1.408-8.897-2.146-12.634c-0.383-1.939-0.514-2.545-0.723-3.361c-0.211-0.884-1.004-1.539-1.955-1.539
	c-0.107,0-0.211,0.006-0.318,0.025l-12.746,1.972c-0.947,0.161-1.666,0.982-1.666,1.971c0,0.106,0.01,0.213,0.025,0.316l0.68,3.496
	c0.645,3.519,1.291,7.978,1.938,13.378c0.646,5.398,0.994,10.975,1.045,16.732c0.111,10.681-0.973,18.595-3.252,23.734
	c-2.281,5.141-6.436,8.475-12.465,9.998c-5.477,1.389-13.09,2.061-22.787,2.053H96.653z"/>
</svg>
